<svg data-name="Layer 1" xmlns="http://www.w3.org/2000/svg" width="182" height="20"><path d="M3 3.27a5.48 5.48 0 0 1-3 1.35v-1a3.66 3.66 0 0 0 3.17-2.57h1.18v18.21H3.09v-16zm3.25 6.41h3.8v1.43h-3.8zm42-8.68h-5.94l-3.72 18.26h4.35l.64-4.19H47l.64 4.19H52zM44 12l1.27-8.16L46.51 12zm14.66 7.42c-4.91 0-5.78-1.82-5.78-4.75v-9a5.22 5.22 0 0 1 .87-3.33C55.09.66 57.47.5 58.73.5a7.23 7.23 0 0 1 4.44 1.19 4.27 4.27 0 0 1 1.42 3.72v2.14h-4.43v-2.3c0-1-.16-1.66-1.5-1.66s-1.35.79-1.35 1.66v9.1c0 1.19.16 1.82 1.5 1.82s1.43-.87 1.43-1.82v-2h4.51V14c-.08 3.4-.87 5.46-6.09 5.46zm13.62 0c-4.91 0-5.78-1.82-5.78-4.75v-9a4.82 4.82 0 0 1 1-3.33C68.79.66 71.17.5 72.43.5a7.23 7.23 0 0 1 4.44 1.19 4.27 4.27 0 0 1 1.42 3.72v2.14h-4.35v-2.3c0-1-.16-1.66-1.51-1.66s-1.34.79-1.34 1.66v9.1c0 1.19.16 1.82 1.5 1.82S74 15.3 74 14.35v-2h4.51V14c-.24 3.4-1 5.46-6.25 5.46zM86.29.66c-1.35 0-3.4.08-4.83 1.5a5.5 5.5 0 0 0-1.27 4v7.52c0 2.14.08 5.78 5.94 5.78 1.35 0 3.41-.08 4.67-1.43s1.35-3.08 1.35-4.51v-7c0-1.9 0-5.86-5.86-5.86zm1.5 14c0 1.11-.31 1.58-1.5 1.58-1.5 0-1.5-.79-1.5-1.58V5.33c0-1.11.31-1.51 1.42-1.51s1.58.32 1.58 1.51zm12.28 4.84c-6 0-6-3.17-6-5.3V.9h4.43v13.77c0 .55 0 1.66 1.35 1.66s1.26-.95 1.26-1.58V.9h4.44V14c0 2.27.08 5.46-5.46 5.46zm11.08-12.19v11.87h-3.72V.9h4.43l3.88 11.87V.9h3.8v18.28h-4.51l-3.88-11.87zm18.44 11.95h-4.51V4.14h-3.64V.9h11.8v3.24h-3.65v15.12zM141.31 1h-5.94l-3.72 18.29H136l.63-4.19H140l.64 4.19H145zm-4.19 11l1.26-8.16 1.19 8.16zm13.53-4.69v11.87h-3.72V.9h4.44l3.87 11.87V.9h3.8v18.28h-4.51l-3.88-11.87zm18.45 11.95h-4.51V4.14h-3.65V.9h11.8v3.24h-3.64v15.12zm7.32-16.01a.36.36 0 0 0-.15-.31 1.65 1.65 0 0 0-.52-.22 2.53 2.53 0 0 1-.59-.26.78.78 0 0 1-.16-1.31 1.24 1.24 0 0 1 .79-.24 1.34 1.34 0 0 1 .58.12 1 1 0 0 1 .4.34.93.93 0 0 1 .14.49h-.53a.46.46 0 0 0-.16-.38.62.62 0 0 0-.43-.14.69.69 0 0 0-.41.11.38.38 0 0 0-.15.32.34.34 0 0 0 .16.28 1.74 1.74 0 0 0 .52.22 3 3 0 0 1 .58.25 1 1 0 0 1 .32.31.82.82 0 0 1 .1.42.74.74 0 0 1-.29.62 1.32 1.32 0 0 1-.81.22 1.59 1.59 0 0 1-.62-.12 1.05 1.05 0 0 1-.43-.34.84.84 0 0 1-.16-.51h.54a.5.5 0 0 0 .17.4.76.76 0 0 0 .5.15.67.67 0 0 0 .43-.12.36.36 0 0 0 .18-.3zm1.7-2.25l.9 2.38.89-2.38h.69v3.1h-.53V3l.05-1.37-.91 2.39h-.39l-.91-2.38L178 3v1h-.53V1zM24.93.51h-.54A3.46 3.46 0 0 0 21 4v11.92a3.47 3.47 0 0 0 3.41 3.5h.54a3.47 3.47 0 0 0 3.41-3.5V4A3.46 3.46 0 0 0 24.93.51zm2.2 15.66a2 2 0 0 1-1.95 2h-1a2 2 0 0 1-1.95-2V3.76a2 2 0 0 1 1.95-2h1a2 2 0 0 1 1.95 2zM34.16.51h-.55A3.47 3.47 0 0 0 30.2 4v11.92a3.47 3.47 0 0 0 3.41 3.5h.55a3.47 3.47 0 0 0 3.41-3.5V4A3.47 3.47 0 0 0 34.16.51zm2.2 15.66a2 2 0 0 1-2 2h-1a2 2 0 0 1-2-2V3.76a2 2 0 0 1 2-2h1a2 2 0 0 1 2 2zM16.94 8.92c1-.4 1.9-.8 1.9-2.8V4c0-1.28-.08-3.44-3.32-3.44S12.27 3 12.27 3.63V6.2A2.4 2.4 0 0 0 14 8.84c-.79.32-2.06.8-2.06 3.29v3.2a4.15 4.15 0 0 0 1 3.21 4.16 4.16 0 0 0 2.62.88c3.56 0 3.48-2.59 3.48-3.53v-3.36c.04-2.41-.67-3.05-2.1-3.61zM13.46 6.2V3.71a1.82 1.82 0 0 1 2.06-2.08c2.21 0 2.21 1.52 2.21 2.48V6a2 2 0 0 1-2.21 2.32 1.92 1.92 0 0 1-2.06-2.12zm4.44 9.37a2.35 2.35 0 0 1-2.37 2.73c-2.38 0-2.38-2.17-2.38-3.21v-2.88a2.35 2.35 0 0 1 2.46-2.73c2.29 0 2.29 2.25 2.29 2.81z"/></svg>